<?xml version="1.0" encoding="UTF-8"?>
<svg id="Layer_2" data-name="Layer 2" xmlns="http://www.w3.org/2000/svg" viewBox="0 0 1000 500">
  <defs>
    <style>
      .cls-1 {
        letter-spacing: -.19em;
      }

      .cls-2 {
        fill: #a5cc2f;
      }

      .cls-2, .cls-3, .cls-4, .cls-5, .cls-6 {
        stroke-width: 0px;
      }

      .cls-3 {
        fill: #fdcb00;
      }

      .cls-7 {
        letter-spacing: -.19em;
      }

      .cls-4 {
        fill: #d63029;
      }

      .cls-8 {
        fill: #181315;
        font-family: Blanquotey, Blanquotey;
        font-size: 117.63px;
      }

      .cls-5 {
        fill: #281819;
      }

      .cls-6, .cls-9 {
        fill: #fff;
      }

      .cls-9 {
        font-family: Elephant-Regular, Elephant;
        font-size: 28.94px;
      }
    </style>
  </defs>
  <path class="cls-6" d="M929.47,151.02H72.53c-23.19,0-42,18.8-42,42v125.94c0,23.19,18.81,42,42,42h856.93c23.19,0,42-18.81,42-42v-125.94c0-23.21-18.81-42-42-42ZM184.82,278.85v41.99h-8.64v-42c-6.58-2.78-11.41-11.8-11.41-22.48,0-12.93,7.05-23.4,15.74-23.4s15.72,10.47,15.72,23.4c0,10.68-4.82,19.7-11.41,22.5Z"/>
  <polygon class="cls-3" points="63.19 176.29 141.63 196.25 118.33 321.28 84.58 321.28 63.19 176.29"/>
  <polygon class="cls-2" points="155.41 207.19 210.55 203.39 213.41 321.28 135.45 321.28 155.41 207.19"/>
  <path class="cls-4" d="M221.96,182.47l68.93,9.98-7.13,128.82h-17.59v-89.37l-.58.05c-3.74.3-7.17,2.18-9.42,5.18h0c-2.38,3.18-4.3,6.68-5.69,10.39h0c-.31.83-.47,1.71-.48,2.59l-1.18,48.52s4.04,5.53,4.99,6.48l.95.95-.48,15.21h-26.14l-6.18-138.81Z"/>
  <path class="cls-6" d="M196.23,256.35c0,10.68-4.82,19.7-11.41,22.5v41.99h-8.64v-42c-6.58-2.78-11.41-11.8-11.41-22.48,0-12.93,7.05-23.4,15.74-23.4s15.72,10.47,15.72,23.4Z"/>
  <polygon class="cls-6" points="87.94 234.19 92.07 234.19 92.6 268.6 99.62 273.77 99.62 320.77 95.78 320.83 95.78 277.02 88.56 269.84 87.94 234.19"/>
  <rect class="cls-6" x="96.23" y="236.07" width="4.55" height="32.53"/>
  <rect class="cls-6" x="103.91" y="236.07" width="4.55" height="32.53"/>
  <polygon class="cls-6" points="117.86 234.19 113.73 234.19 113.19 268.6 106.18 273.77 106.18 320.77 110.01 320.83 110.01 277.02 117.23 269.84 117.86 234.19"/>
  <text class="cls-8" transform="translate(312.12 266.62) scale(1.29 1)"><tspan class="cls-7" x="0" y="0">T</tspan><tspan x="52.44" y="0">aj </tspan><tspan class="cls-1" x="162.44" y="0">T</tspan><tspan x="214.88" y="0">amira</tspan></text>
  <rect class="cls-5" x="497.67" y="282.51" width="454" height="38.76" rx="3.27" ry="3.27"/>
  <text class="cls-9" transform="translate(525.76 312.77) scale(.92 1)"><tspan x="0" y="0">FINE DINE RESTAURANT</tspan></text>
</svg>